<?xml version="1.0" encoding="utf-8"?>
<!-- Generator: Adobe Illustrator 19.2.1, SVG Export Plug-In . SVG Version: 6.00 Build 0)  -->
<svg version="1.1" id="Capa_1" xmlns="http://www.w3.org/2000/svg" xmlns:xlink="http://www.w3.org/1999/xlink" x="0px" y="0px"
	 viewBox="0 0 379.8 140.9" style="enable-background:new 0 0 379.8 140.9;" xml:space="preserve">
<style type="text/css">
	.st0{fill-rule:evenodd;clip-rule:evenodd;fill:#1F9B9C;}
	.st1{fill-rule:evenodd;clip-rule:evenodd;fill:#FFFFFF;}
	.st2{fill:#1F9B9C;}
	.st3{fill:#5B5B58;}
</style>
<g>
	<circle class="st0" cx="70.5" cy="70.5" r="70.5"/>
	<path class="st1" d="M46.5,21.4c0,0-4.1-4.4-4.1-4.2c-3.4,9.1-5.4,81.6,0.7,99.5c4.4,7.5,12.4-0.6,13.6-4.2l32-0.7
		c0,0,4.3,11.9,8.2,11.9c4.3,0,2.9-5.2,2.7-9.1c-0.3-3.9,2.7-48.6,2.1-51.1c-0.7-2.6-15.7-7.7-17-9.8c-1.4-2.1-5.2-22.7-4.1-23.1
		c1.1-0.5,12.7,0,12.9-1.4c0.2-1.4-1.1-11.4-2.7-11.2c-1.6,0.2-22.5,1.4-23.8,2.1c-1.4,0.7,3,32.7,4.8,35.7c1.8,3,16.1,10,16.3,12.6
		c0.2,2.6,4.1,25.7,1.4,25.9c-2.7,0.2-9.8-0.9-10.2-0.7c-0.5,0.2,0,7.2-0.7,7.7c-0.7,0.5-22-1.9-23.8-2.1c-1.8-0.2-0.5-6.5,0.7-6.3
		c1.1,0.2,18.4,5.8,19.8,4.9c1.4-0.9,1.8-4,0.7-8.4c-1.1-4.4-6.6-28.5-8.9-29.4c-2.3-0.9-5.7-1.9-7.5-0.7c-1.8,1.2-3.2,3-3.4,4.9
		c-0.2,1.9-0.2,7.7-1.4,8.4c-1.1,0.7-1.8-1.4-1.4-4.9c0.5-3.5,0-30.1,0-32.2c0-2.1,1.6-2.3,4.1-2.1c2.5,0.2,8.2-0.2,8.2-2.1
		c0-1.9,1.1-6.5,0-8.4c-1.1-1.9-2.9-2.1-6.1-1.4C56.3,22.1,46.5,21.4,46.5,21.4z M60.8,87.3c5.9,1.2,9.2,1.8,8.2-0.7
		c-1-2.4-3.9-12-4.8-13.3c-0.9-1.3-2.6-0.6-2.7,0.7C61.4,75.3,59.8,78.6,60.8,87.3z"/>
</g>
<g>
	<path class="st2" d="M177.4,33.7c-0.3,6.1-3.1,9.5-7.9,9.5c-5.4,0-8.5-4.2-8.5-13.8c0-9.6,3.1-13.8,8.5-13.8c5.4,0,7.6,3.8,7.6,8.2
		h-2.4c0-3.6-1.8-6.2-5.3-6.2c-3.8,0-6.1,3.1-6.1,11.8c0,8.6,2.3,11.8,6.1,11.8c3.4,0,5.3-2.9,5.5-7.5H177.4z"/>
	<path class="st2" d="M185.8,9.6l-3.7,5.3h-1.8l2.8-5.3H185.8z M180.7,16.1h2.4v26.6h-2.4V16.1z"/>
	<path class="st2" d="M187.4,16.1h7.9c4.4,0,6.9,2.5,6.9,6.7c0,3.2-1.3,6.1-4.8,6.8v0.1c3.3,0.3,4.4,2.2,4.6,6.3l0.1,2.9
		c0,1.5,0.2,2.9,1.1,3.9h-2.8c-0.6-0.9-0.7-2.3-0.7-3.7l-0.1-2.2c-0.1-4.7-1-6.2-5.3-6.2h-4.5v12.2h-2.4V16.1z M189.8,28.6h4.1
		c3.8,0,6-1.7,6-5.2c0-3.2-1.4-5.2-5.7-5.2h-4.4V28.6z"/>
	<path class="st2" d="M222.3,33.7c-0.3,6.1-3.1,9.5-7.9,9.5c-5.4,0-8.5-4.2-8.5-13.8c0-9.6,3.1-13.8,8.5-13.8c5.4,0,7.6,3.8,7.6,8.2
		h-2.4c0-3.6-1.8-6.2-5.3-6.2c-3.8,0-6.1,3.1-6.1,11.8c0,8.6,2.3,11.8,6.1,11.8c3.4,0,5.3-2.9,5.5-7.5H222.3z"/>
	<path class="st2" d="M225.1,16.1h2.4v19.1c0,4,1.7,5.9,5.2,5.9c3.5,0,5.2-1.9,5.2-5.9V16.1h2.4v19.2c0,5.6-2.7,7.9-7.6,7.9
		c-4.9,0-7.6-2.3-7.6-7.9V16.1z"/>
	<path class="st2" d="M244.1,16.1h2.4v24.6h11v2h-13.4V16.1z"/>
	<path class="st2" d="M268.3,15.6c5.4,0,8.5,4.2,8.5,13.8c0,9.6-3.1,13.8-8.5,13.8c-5.4,0-8.5-4.2-8.5-13.8
		C259.8,19.9,262.9,15.6,268.3,15.6z M268.3,41.2c3.8,0,6.1-3.1,6.1-11.8c0-8.6-2.3-11.8-6.1-11.8c-3.8,0-6.1,3.1-6.1,11.8
		C262.2,38,264.5,41.2,268.3,41.2z"/>
	<path class="st3" d="M169.5,60.4c5.4,0,8.5,4.2,8.5,13.8c0,9.6-3.1,13.8-8.5,13.8c-5.4,0-8.5-4.2-8.5-13.8
		C161,64.6,164,60.4,169.5,60.4z M169.5,85.9c3.8,0,6.1-3.1,6.1-11.8c0-8.6-2.3-11.8-6.1-11.8c-3.8,0-6.1,3.1-6.1,11.8
		C163.4,82.8,165.7,85.9,169.5,85.9z"/>
	<path class="st3" d="M182,60.9h6.4c7.8,0,9.7,4.6,9.7,13.3c0,8.7-1.9,13.3-9.7,13.3H182V60.9z M184.3,85.5h3.9
		c5.2,0,7.4-2.6,7.4-11.3c0-8.7-2.2-11.3-7.4-11.3h-3.9V85.5z"/>
	<path class="st3" d="M210.3,60.4c5.4,0,8.5,4.2,8.5,13.8c0,9.6-3.1,13.8-8.5,13.8c-5.4,0-8.5-4.2-8.5-13.8
		C201.8,64.6,204.8,60.4,210.3,60.4z M210.3,85.9c3.8,0,6.1-3.1,6.1-11.8c0-8.6-2.3-11.8-6.1-11.8c-3.8,0-6.1,3.1-6.1,11.8
		C204.2,82.8,206.5,85.9,210.3,85.9z"/>
	<path class="st3" d="M222.7,60.9h3.2l10.2,23.2h0.1V60.9h2.4v26.6h-3.2l-10.2-23.2h-0.1v23.2h-2.4V60.9z"/>
	<path class="st3" d="M247.8,62.9h-6.9v-2H257v2h-6.9v24.6h-2.4V62.9z"/>
	<path class="st3" d="M267.6,60.4c5.4,0,8.5,4.2,8.5,13.8c0,9.6-3.1,13.8-8.5,13.8c-5.4,0-8.5-4.2-8.5-13.8
		C259.1,64.6,262.2,60.4,267.6,60.4z M267.6,85.9c3.8,0,6.1-3.1,6.1-11.8c0-8.6-2.3-11.8-6.1-11.8c-3.8,0-6.1,3.1-6.1,11.8
		C261.5,82.8,263.8,85.9,267.6,85.9z"/>
	<path class="st3" d="M280.1,60.9h2.4v24.6h11v2h-13.4V60.9z"/>
	<path class="st3" d="M304.3,60.4c5.4,0,8.5,4.2,8.5,13.8c0,9.6-3.1,13.8-8.5,13.8c-5.4,0-8.5-4.2-8.5-13.8
		C295.8,64.6,298.8,60.4,304.3,60.4z M304.3,85.9c3.8,0,6.1-3.1,6.1-11.8c0-8.6-2.3-11.8-6.1-11.8c-3.8,0-6.1,3.1-6.1,11.8
		C298.2,82.8,300.5,85.9,304.3,85.9z M308.1,54.3l-3.7,5.3h-1.8l2.8-5.3H308.1z"/>
	<path class="st3" d="M324.3,75.9v-2h8.5v13.6H331v-4.4h-0.1c-0.8,2.9-3.2,4.8-5.9,4.8c-5.4,0-8.5-4.2-8.5-13.8
		c0-9.6,3.1-13.8,8.5-13.8c5.1,0,7.4,3.3,7.6,7.9h-2.4c0-3.2-1.8-5.9-5.3-5.9c-3.8,0-6.1,3.1-6.1,11.8c0,8.6,2.3,11.8,6.1,11.8
		c3.6,0,5.6-3.2,5.6-9.4v-0.6H324.3z"/>
	<path class="st3" d="M336.9,60.9h2.4v26.6h-2.4V60.9z"/>
	<path class="st3" d="M359.8,78.5c-0.3,6.1-3.1,9.5-7.9,9.5c-5.4,0-8.5-4.2-8.5-13.8c0-9.6,3.1-13.8,8.5-13.8c5.4,0,7.7,3.8,7.7,8.2
		h-2.4c0-3.6-1.8-6.2-5.3-6.2c-3.8,0-6.1,3.1-6.1,11.8c0,8.6,2.3,11.8,6.1,11.8c3.4,0,5.3-2.9,5.5-7.5H359.8z"/>
	<path class="st3" d="M371.3,60.4c5.4,0,8.5,4.2,8.5,13.8c0,9.6-3.1,13.8-8.5,13.8c-5.4,0-8.5-4.2-8.5-13.8
		C362.8,64.6,365.8,60.4,371.3,60.4z M371.3,85.9c3.8,0,6.1-3.1,6.1-11.8c0-8.6-2.3-11.8-6.1-11.8c-3.8,0-6.1,3.1-6.1,11.8
		C365.2,82.8,367.5,85.9,371.3,85.9z"/>
	<path class="st3" d="M172.9,112.5c0-3.3-1.5-5.3-4.8-5.3c-3.2,0-5,2.1-5,4.8c0,7.9,12.9,3.6,12.9,12.9c0,5.1-3.2,7.8-8.1,7.8
		c-5,0-7.8-2.7-7.8-7.9v-0.8h2.4v1c0,3.4,1.8,5.7,5.3,5.7c3.4,0,5.7-1.7,5.7-5.4c0-7.9-12.9-3.4-12.9-13.1c0-4.2,2.7-7.1,7.3-7.1
		c5,0,7.2,2.5,7.2,7.3H172.9z"/>
	<path class="st3" d="M184.9,105.7h3l7.9,26.6h-2.5l-2.2-7.8h-9.3l-2.2,7.8H177L184.9,105.7z M190.5,122.5l-4.1-15h-0.1l-4.1,15
		H190.5z"/>
	<path class="st3" d="M197.8,105.7h3.2l10.2,23.2h0.1v-23.2h2.4v26.6h-3.2l-10.2-23.2h-0.1v23.2h-2.4V105.7z"/>
	<path class="st3" d="M222.8,107.7h-6.9v-2h16.1v2h-6.9v24.6h-2.4V107.7z"/>
	<path class="st3" d="M234.5,105.7h2.4v26.6h-2.4V105.7z"/>
	<path class="st3" d="M247,105.7h3l7.9,26.6h-2.5l-2.2-7.8h-9.3l-2.2,7.8h-2.5L247,105.7z M252.6,122.5l-4.1-15h-0.1l-4.1,15H252.6z
		"/>
	<path class="st3" d="M267.4,120.7v-2h8.5v13.6h-1.9v-4.4H274c-0.8,2.9-3.2,4.9-5.9,4.9c-5.4,0-8.5-4.2-8.5-13.8s3.1-13.8,8.5-13.8
		c5.1,0,7.3,3.3,7.6,7.9h-2.4c0-3.2-1.8-5.9-5.3-5.9c-3.8,0-6.1,3.1-6.1,11.8c0,8.6,2.3,11.8,6.1,11.8c3.6,0,5.6-3.2,5.6-9.4v-0.6
		H267.4z"/>
	<path class="st3" d="M279.6,105.7h2.4v19.1c0,4,1.7,5.9,5.2,5.9c3.5,0,5.2-1.9,5.2-5.9v-19.1h2.4v19.2c0,5.6-2.7,7.9-7.6,7.9
		c-4.9,0-7.6-2.3-7.6-7.9V105.7z"/>
	<path class="st3" d="M298.6,105.7h13.2v2H301v9.7h10.1v2H301v10.9h11.2v2h-13.5V105.7z"/>
	<path class="st3" d="M315.2,105.7h3.2l10.2,23.2h0.1v-23.2h2.4v26.6h-3.2l-10.2-23.2h-0.1v23.2h-2.4V105.7z M328.1,99.9
		c0,1.5-1.1,3.7-2.9,3.7c-0.7,0-1.2-0.2-1.8-0.6l-1.4-0.8c-0.4-0.2-0.7-0.3-0.9-0.3c-0.7,0-1.2,0.9-1.3,1.8h-1.6
		c0.1-1.6,1.2-3.7,2.8-3.7c0.9,0,1.3,0.2,2.1,0.7l1,0.6c0.4,0.2,0.8,0.4,1.1,0.4c0.8,0,1.3-1.2,1.3-1.8H328.1z"/>
	<path class="st3" d="M343.5,105.2c5.4,0,8.5,4.2,8.5,13.8s-3.1,13.8-8.5,13.8c-5.4,0-8.5-4.2-8.5-13.8S338,105.2,343.5,105.2z
		 M343.5,130.7c3.8,0,6.1-3.1,6.1-11.8c0-8.6-2.3-11.8-6.1-11.8c-3.8,0-6.1,3.1-6.1,11.8C337.4,127.6,339.7,130.7,343.5,130.7z"/>
</g>
</svg>
